inDegrees=no
num_controls=7
num_derivatives=13
num_iterations=47
num_multipliers=7
num_parameters=0
num_slacks=7
num_states=26
objective=0.449131
objective_accelerations=0.056131
objective_balance=0.005952
objective_effort=0.035875
objective_height=0.347253
objective_ligament=0.003920
solver_duration=692.175144
status=Solve_Succeeded
success=true
DataType=double
version=3
OpenSimVersion=4.5
endheader
time	/jointset/ground_pelvis/pelvis_tilt/value	/jointset/ground_pelvis/pelvis_tx/value	/jointset/ground_pelvis/pelvis_ty/value	/jointset/hip_l/hip_flexion_l/value	/jointset/hip_l/hip_adduction_l/value	/jointset/hip_l/hip_rotation_l/value	/jointset/back/lumbar_extension/value	/jointset/patellofemoral_l/patellar_flexion_l/value	/jointset/knee_l/knee_flexion_l/value	/jointset/knee_l/knee_adduction_l/value	/jointset/knee_l/knee_rotation_l/value	/jointset/ankle_l/ankle_angle_l/value	/jointset/subtalar_l/subtalar_angle_l/value	/jointset/ground_pelvis/pelvis_tilt/speed	/jointset/ground_pelvis/pelvis_tx/speed	/jointset/ground_pelvis/pelvis_ty/speed	/jointset/hip_l/hip_flexion_l/speed	/jointset/hip_l/hip_adduction_l/speed	/jointset/hip_l/hip_rotation_l/speed	/jointset/back/lumbar_extension/speed	/jointset/patellofemoral_l/patellar_flexion_l/speed	/jointset/knee_l/knee_flexion_l/speed	/jointset/knee_l/knee_adduction_l/speed	/jointset/knee_l/knee_rotation_l/speed	/jointset/ankle_l/ankle_angle_l/speed	/jointset/subtalar_l/subtalar_angle_l/speed	/forceset/tau_hip_flexion_l	/forceset/tau_hip_adduction_l	/forceset/tau_hip_rotation_l	/forceset/tau_knee_flexion_l	/forceset/tau_ankle_angle_l	/forceset/tau_subtalar_angle_l	/forceset/tau_lumbar_extension	lambda_cid13_p0	lambda_cid13_p1	lambda_cid13_p2	lambda_cid13_p3	lambda_cid13_p4	lambda_cid13_p5	lambda_cid14_p0	/jointset/ground_pelvis/pelvis_tilt/accel	/jointset/ground_pelvis/pelvis_tx/accel	/jointset/ground_pelvis/pelvis_ty/accel	/jointset/hip_l/hip_flexion_l/accel	/jointset/hip_l/hip_adduction_l/accel	/jointset/hip_l/hip_rotation_l/accel	/jointset/back/lumbar_extension/accel	/jointset/patellofemoral_l/patellar_flexion_l/accel	/jointset/knee_l/knee_flexion_l/accel	/jointset/knee_l/knee_adduction_l/accel	/jointset/knee_l/knee_rotation_l/accel	/jointset/ankle_l/ankle_angle_l/accel	/jointset/subtalar_l/subtalar_angle_l/accel	gamma_cid13_p0	gamma_cid13_p1	gamma_cid13_p2	gamma_cid13_p3	gamma_cid13_p4	gamma_cid13_p5	gamma_cid14_p0
0.5	-0.389434318596298	-0.04386868924449275	0.7610798218489478	1.232672259720244	-0.2891698735643941	0.004776571127311653	-0.3224792462832745	0.7937990543387924	0.7937990543387254	-0.1448450696508825	0.1465219071363802	0.1350462507695139	-0.007488048403057426	-0.6065079543467139	-0.1962103564861861	-0.5309051639093838	2.323337112496065	0.007705153607718364	0.593893622848525	-0.6316554034527636	2.074740736757613	2.074740736757324	0.03710387197523802	0.07383463285557705	0.4606129481086055	0.08820787191291138	-0.2180637239206437	0.06740981293323729	-0.0219999372683735	-0.2301397895886556	0.1045237322856158	-0.0005680549701225072	0.2043169224470164	-5.383935789946289	0.9065705359148573	-0.2238988219034774	-1.182420516934434	-602.5586473657902	-18.65289834848229	-21.5475669255914	0.622030748366341	0.6277071578196151	-0.4421143077522866	-1.447699289280045	0.4009339989158783	-0.2546705255035397	1.836021982464605	-1.304381812082068	-1.304381812082061	-0.2435726425002655	-0.01289481151406356	-0.5314553133244949	0.3574433559992349	-4.102449778294955e-07	-1.651388248206574e-07	2.978893085855557e-06	3.389392872445755e-07	-5.443303948117687e-07	-7.585006116710016e-08	-4.004531085884724e-07
0.51	-0.3954669883474624	-0.04579919872750616	0.7557498176575227	1.255829367007871	-0.2890742367274072	0.01070492383102071	-0.3287038580939178	0.8144777717910188	0.8144777717909925	-0.1444903947784855	0.1472587640814118	0.139624542133293	-0.006589889698264802	-0.5999478656185245	-0.1898778840979149	-0.5349819857766112	2.307785694935625	0.01141102969075838	0.5917234213941646	-0.6131979001713731	2.060717649527226	2.060717649527188	0.03383195222533518	0.07353219269013533	0.4549642042004761	0.09140545994716719	-0.2256296031819761	0.06738356321242903	-0.02191718486900563	-0.2323260171685659	0.1027492357441179	-0.0001638918218916386	0.210359951041417	-6.21088439216204	1.01097659878702	-0.3949090543090888	-0.8750180961205879	-607.3618729562003	-18.58347513365866	-20.29523518448404	0.6846868509212393	0.6381314888961629	-0.3735156644683924	-1.653704309350995	0.3533266384341745	-0.2065935552537108	1.860973274475212	-1.493960349741941	-1.493960349704581	-0.3687858479350357	-0.04017268952979445	-0.5937184834633276	0.2978344822539746	-3.722230898787296e-07	-1.061197611768763e-07	2.807580132620857e-06	3.177712862005624e-07	-4.885834069404389e-07	1.056193456439828e-08	-3.741462060522472e-07
0.52	-0.401431719428154	-0.04766596064472387	0.7503824353397751	1.278821991855937	-0.2889419586844801	0.01660989480009115	-0.3347418231170356	0.8350077207366575	0.8350077207367013	-0.1441683959451406	0.1479923458107107	0.1441439191472116	-0.005660371522106671	-0.5929202202552516	-0.1834608433270485	-0.53838078917391	2.290440624578256	0.01503339479135958	0.5892172759457004	-0.5943260459499886	2.044987035447857	2.044987035448068	0.03056866420740862	0.07317958970586555	0.448830078136121	0.09447976618604692	-0.2331954824432434	0.06735731349127506	-0.02183443246747041	-0.2345122447487382	0.1009747392024763	0.0002402713258948643	0.2164029796359709	-7.043593296844689	1.112275338751099	-0.5607204108027768	-0.5794662759569517	-612.2580330872452	-18.6031655004234	-19.03940850013189	0.715542075382412	0.6446208343391332	-0.3065106137664949	-1.806429848666081	0.3842318024281673	-0.321859324324033	1.91889217046256	-1.645887181878431	-1.645887181878445	-0.2418462961053618	-0.02292737527951253	-0.6285317445689085	0.332786996923939	-3.344013724548434e-07	-6.024588929030477e-08	2.62645764494998e-06	2.950302806017876e-07	-4.369453419453483e-07	8.901965646706385e-08	-3.47650560461731e-07
0.53	-0.4073240628958659	-0.04946825969860742	0.7449844588751304	1.301632662249123	-0.2887736670395073	0.02248692975907357	-0.340589223131107	0.8553721521728261	0.8553721521729082	-0.1438777892109069	0.1487229558959794	0.1485995901745414	-0.004700501036917638	-0.5854862608188959	-0.1769972177653914	-0.5410990176183804	2.271421244610786	0.0186109549126686	0.5860363485154977	-0.575114227170591	2.027627900237147	2.02762790023721	0.02762659327665972	0.07300594455567513	0.4422187410554101	0.09747087384951542	-0.2403985036439596	0.06713577341180961	-0.02169588151779238	-0.2368639668480349	0.09933443632644813	0.0004736882350628689	0.2220883038649445	-7.835269796042525	1.285352883391613	-0.7434694537344519	-0.2042864770908362	-617.015964465574	-18.54206380431769	-17.7827195460925	0.7666308331593593	0.6475524880729286	-0.2372380035779626	-1.990558061406888	0.3420580494420307	-0.3395319613452196	1.928286183548784	-1.821562676237661	-1.821562676259942	-0.3092271206744019	-0.005557571415576076	-0.6902076826404802	0.2784612381610021	-3.010632758214685e-07	-1.222000373157983e-08	2.449401438484281e-06	2.760557910283057e-07	-3.9280773191768e-07	1.522832637514237e-07	-3.213358315921078e-07
0.54	-0.4131402051781282	-0.05120585868267612	0.7395627483172852	1.324244965644539	-0.2885700918068441	0.02832749094192537	-0.346243313066996	0.8755548650597967	0.8755548650598475	-0.1436143711118008	0.1494536346324123	0.1529865932325001	-0.003711481757674102	-0.5776799831666355	-0.1705208293640766	-0.5431276078140458	2.250767225018588	0.02209011233245866	0.5819225207262011	-0.5556640303163303	2.008643325603649	2.008643325603565	0.02513093718131115	0.07319331994442776	0.4350964842619877	0.1003095249971142	-0.2476015248445122	0.06691423333217394	-0.02155733056803937	-0.2392156889473655	0.09769413345033895	0.0007071051440077619	0.227773628094126	-8.634082445205351	1.455995752500067	-0.9216200919342601	0.1667897132360779	-621.8824237549952	-18.56062518203111	-16.52833781237356	0.7900057185626478	0.6471734022711005	-0.1685829640054342	-2.133357773611871	0.3645512621243333	-0.5084393961425694	1.966567785434361	-1.970975066435793	-1.970975066435787	-0.1525633290255614	0.04927673250925503	-0.7307156871104944	0.3022956937499523	-2.726857809137656e-07	3.818683312399572e-08	2.276844096330693e-06	2.61248510674297e-07	-3.569684975986494e-07	1.987363612453175e-07	-2.952212659030471e-07
